<svg class="icon" fill="currentColor" height="14" viewBox="0 0 14 14" width="14" xmlns="http://www.w3.org/2000/svg"><path d="m6.99994 5.41162c-.31417 0-.62127.09316-.88249.2677s-.46481.42262-.58504.71287c-.12022.29025-.15168.60963-.09039.91776s.21258.59116.43472.81331c.22215.22214.50518.37343.81331.43472s.62751.02983.91776-.09039c.29025-.12023.53833-.32382.71287-.58504s.2677-.56833.2677-.88249c-.00052-.42112-.16804-.82485-.46582-1.12262-.29778-.29778-.7015-.4653-1.12262-.46582z"/><path d="m8.86873 2.95374h-3.73744c-.57732.00066-1.1308.2303-1.53903.63852-.40822.40823-.63786.96171-.63852 1.53903v3.73744c.00066.57732.2303 1.13081.63852 1.53907.40823.4082.96171.6378 1.53903.6385h3.73744c.57732-.0007 1.13081-.2303 1.53907-.6385.4082-.40826.6378-.96175.6385-1.53907v-3.73744c-.0007-.57732-.2303-1.1308-.6385-1.53903-.40826-.40822-.96175-.63786-1.53907-.63852zm-1.86871 6.47388c-.48014 0-.94949-.14238-1.34871-.40913-.39921-.26675-.71037-.64589-.8941-1.08947-.18374-.44359-.23182-.9317-.13815-1.40261.09367-.4709.32488-.90346.66438-1.24297.33951-.3395.77207-.57071 1.24297-.66438.47091-.09367.95902-.04559 1.40261.13815.44358.18373.82272.49489 1.08947.8941.26675.39922.40913.86857.40913 1.34871-.00075.64361-.25675 1.26065-.71185 1.71575s-1.07214.7111-1.71575.71185zm2.66755-4.48728c-.11853 0-.2344-.03514-.33296-.10098-.09857-.06583-.1754-.15941-.2208-.2689s-.05732-.22998-.03426-.34625c.02307-.11626.08008-.22308.16383-.30695.08376-.08388.1905-.14104.30673-.16426.11623-.02323.23674-.01148.34629.03377.1096.04524.2032.12195.2692.22042s.1013.2143.1015.33283c.0001.07881-.0153.15689-.0454.22975-.03.07286-.0742.13908-.1298.19487-.0557.05578-.12185.10004-.19466.13024-.0728.03019-.15085.04574-.22967.04574z"/><path d="m13.5758 3.49267c-.0008-.23749-.0225-.47445-.0649-.70812-.0544-.28532-.1308-.56336-.2674-.82124-.1424-.2717-.3276-.51866-.5486-.73136-.3338-.326767-.7461-.562057-1.1972-.683201-.4153-.112-.84-.13552-1.2659-.13496-.0014-.001877-.0023-.004104-.0025-.00644h-6.46076v.00644c-.2422.00448-.48496.00252-.72576.03248-.26406.027918-.52403.086169-.77476.1736-.38995.143837-.74189.37483-1.029.675361-.329106.33445-.566103.74835-.687959 1.20148-.11032.41216-.1344.83244-.13496 1.2558l-.00448 6.48679c.00784.2926.01036.588.05964.8781.05236.308.12712.6078.26992.8873.189927.3744.460559.702.792399.9593.23687.1888.50522.3343.79268.4298.42336.1366.86016.189 1.3034.1915.27664.0017.55272.0087.82936.0075 2.00872-.0084 4.01772.0146 6.02648-.0123.2653-.0058.5297-.0339.7904-.084.493-.0868.9517-.3101 1.3241-.6445.4419-.3943.7401-.8764.8747-1.4586.0882-.3805.1101-.7666.114-1.1538v-.0773c-.0003-.0303-.0118-6.58283-.0129-6.66963zm-1.6906 5.376c-.001.79974-.3191 1.56643-.8846 2.13203-.5654.5655-1.33212.8837-2.13186.8847h-3.73744c-.79979-.001-1.56654-.3191-2.13208-.8847-.56553-.5655-.88368-1.33224-.88464-2.13203v-3.73744c.00096-.79979.31911-1.56654.88464-2.13208.56554-.56554 1.33229-.88368 2.13208-.88464h3.73744c.79979.00096 1.56656.3191 2.13206.88464.5656.56554.8837 1.33229.8847 2.13208z"/></svg>