<svg class="icon" fill="currentColor" height="16" viewBox="0 0 16 16" width="16" xmlns="http://www.w3.org/2000/svg" xmlns:xlink="http://www.w3.org/1999/xlink"><clipPath id="a"><path d="m0 0h16v16h-16z"/></clipPath><g clip-path="url(#a)"><path d="m16 3.039c-.595.261-1.229.434-1.89.518.68-.406 1.199-1.044 1.443-1.813-.634.378-1.334.645-2.08.794-.602-.641-1.46-1.038-2.396-1.038-1.816 0-3.278 1.474-3.278 3.281 0 .26.022.51.076.748-2.727-.133-5.14-1.44-6.761-3.431-.283.491-.449 1.053-.449 1.658 0 1.136.585 2.143 1.457 2.726-.527-.01-1.044-.163-1.482-.404v.036c0 1.594 1.137 2.918 2.628 3.223-.267.073-.558.108-.86.108-.21 0-.422-.012-.621-.056.425 1.299 1.631 2.254 3.065 2.285-1.116.873-2.533 1.399-4.067 1.399-.269 0-.527-.012-.785-.045 1.453.937 3.175 1.472 5.032 1.472 6.036 0 9.336-5 9.336-9.334 0-.145-.005-.285-.012-.424.651-.462 1.198-1.039 1.644-1.703z"/></g></svg>