<svg class="icon" fill="currentColor" height="16" viewBox="0 0 16 16" width="16" xmlns="http://www.w3.org/2000/svg" xmlns:xlink="http://www.w3.org/1999/xlink"><clipPath id="a"><path d="m0 0h16v16h-16z"/></clipPath><g clip-path="url(#a)"><path d="m15.8574 11.578c-.043-.072-.309-.6501-1.5891-1.83814-1.3401-1.2441-1.1601-1.04208.454-3.19324.9831-1.3101 1.3761-2.11016 1.2531-2.45218-.117-.32603-.8401-.24002-.8401-.24002l-2.4041.014s-.178-.024-.3111.055c-.129.07801-.212.25802-.212.25802s-.381 1.01408-.889 1.87614c-1.0711 1.81914-1.50015 1.91514-1.67516 1.80214-.40703-.26302-.30502-1.05808-.30502-1.62212 0-1.76314.26702-2.49819-.52104-2.6882-.26202-.06301-.45404-.10501-1.12309-.11201-.85806-.009-1.58511.003-1.99614.20401-.27402.13401-.48504.43304-.35603.45004.15901.021.51904.097.71005.35702.24702.33503.23802 1.08908.23802 1.08908s.14201 2.07516-.33102 2.33318c-.32503.17701-.77006-.18402-1.72513-1.83514-.48904-.84506-.85907-1.78013-.85907-1.78013s-.071-.17401-.19801-.26702c-.15401-.11301-.37003-.14901-.37003-.14901l-2.286168.014s-.343026.01-.4690349.15901c-.1120083.13301-.0090006.40703-.0090006.40703s1.7901335 4.18731 3.8162835 6.29844c1.85914 1.9352 3.96929 1.8082 3.96929 1.8082h.95607s.28903-.032.43604-.1911c.13601-.146.13101-.42.13101-.42s-.019-1.2831.57704-1.4721c.58704-.186 1.34114 1.2401 2.14014 1.7891.6041.4151 1.0631.3241 1.0631.3241l2.1372-.03s1.118-.069.588-.9481z"/></g></svg>