<svg fill="#1e1e1e" height="35" viewBox="0 0 35 35" width="35" xmlns="http://www.w3.org/2000/svg" xmlns:xlink="http://www.w3.org/1999/xlink"><clipPath id="a"><path d="m0 0h35v35h-35z"/></clipPath><g clip-path="url(#a)"><path d="m33.3867 33.6328h-1.4993v-21.77c0-1.0132-.8244-1.8376-1.8377-1.8376h-3.3512c-1.0133 0-1.8376.8244-1.8376 1.8376v21.77h-3.8071v-11.9064c0-1.0133-.8244-1.8377-1.8377-1.8377h-3.3512c-1.0133 0-1.8376.8244-1.8376 1.8377v11.9064h-3.8071v-6.1662c0-1.0133-.82442-1.8377-1.83765-1.8377h-3.35131c-1.0133 0-1.83764.8244-1.83764 1.8377v6.1662h-1.5802c-.37755 0-.68359.3061-.68359.6836 0 .3776.30604.6836.68359.6836h31.7733c.3776 0 .6836-.306.6836-.6836 0-.3775-.306-.6836-.6836-.6836zm-24.53383 0h-4.29215v-6.1662c0-.2595.21102-.4705.47045-.4705h3.35125c.25942 0 .47045.211.47045.4705zm10.83363 0h-4.2921v-11.9064c0-.2595.211-.4705.4704-.4705h3.3513c.2593 0 .4704.211.4704.4705zm10.8337 0h-4.2922v-21.77c0-.2594.2111-.4704.4705-.4704h3.3512c.2595 0 .4705.211.4705.4704z"/><path d="m31.8857.718867c.0096-.186553-.0561-.37625-.1985-.518711-.1425-.1424607-.3322-.20815405-.5187-.19851537-.011-.00047852-.0219-.00164063-.0331-.00164063h-4.1358c-.3775 0-.6836.306045-.6836.683594 0 .377546.3061.683596.6836.683596h2.5537l-6.7578 6.75787-2.5484-2.54844c-.1282-.12817-.3021-.20022-.4834-.20022s-.3552.07205-.4833.20022l-12.28893 12.28898c-.26695.2669-.26695.6998 0 .9668.1335.1334.30843.2001.48337.2001.17493 0 .34993-.0667.48337-.2002l11.80549-11.80564 2.5485 2.54844c.2669.26694.6998.26694.9668 0l7.2411-7.24111v2.31123c0 .37755.3061.6836.6836.6836.3776 0 .6836-.30605.6836-.6836v-3.893267c0-.011142-.0011-.022012-.0016-.033086z"/><path d="m5.17065 21.4177c.37754 0 .6836-.3061.6836-.6836 0-.3776-.30606-.6836-.6836-.6836-.37753 0-.68359.306-.68359.6836 0 .3775.30606.6836.68359.6836z"/></svg>