<svg fill="#1e1e1e" height="35" viewBox="0 0 35 35" width="35" xmlns="http://www.w3.org/2000/svg"><path d="m21.1914 12.9883c-.3773 0-.6836.3062-.6836.6836 0 .3773.3063.6836.6836.6836.3774 0 .6836-.3063.6836-.6836 0-.3774-.3062-.6836-.6836-.6836z"/><path d="m34.1989 30.3324-9.1246-9.1247c1.4865-2.239 2.2695-4.8319 2.2695-7.5358 0-7.5387-6.1333-13.6719-13.6719-13.6719-7.5387 0-13.6719 6.1332-13.6719 13.6719 0 7.5386 6.1332 13.6719 13.6719 13.6719 2.704 0 5.2969-.7831 7.5358-2.2694l2.5222 2.5221c.0003.0003.0006.0007.0011.0011l6.6013 6.6013c.5166.5166 1.2032.8011 1.9333.8011.7302 0 1.4167-.2845 1.9331-.8009.5167-.5163.8013-1.2029.8013-1.9335 0-.7305-.2846-1.4171-.8011-1.9332zm-13.3126-6.6987s-.0001.0001-.0002.0001c-2.11 1.5326-4.6046 2.3428-7.2142 2.3428-6.78483 0-12.30471-5.5199-12.30471-12.3047 0-6.78483 5.51988-12.30471 12.30471-12.30471 6.7848 0 12.3047 5.51988 12.3047 12.30471 0 2.6096-.8102 5.1042-2.3429 7.2143-.7667 1.0563-1.6911 1.9808-2.7474 2.7475zm1.4341.6197c.7075-.5788 1.3543-1.2255 1.933-1.933l1.9395 1.9395c-.5899.6961-1.2369 1.3432-1.933 1.933zm10.9118 8.9788c-.2584.2584-.6017.4006-.9666.4006s-.7081-.1422-.9665-.4006l-6.07-6.07c.6923-.5941 1.339-1.2407 1.933-1.933l6.0702 6.0702c.2583.258.4005.601.4005.9662s-.1422.7083-.4006.9666z"/><path d="m13.6719 2.73438c-6.03103 0-10.93752 4.90649-10.93752 10.93752 0 6.031 4.90649 10.9375 10.93752 10.9375 6.031 0 10.9375-4.9065 10.9375-10.9375 0-6.03103-4.9065-10.93752-10.9375-10.93752zm0 20.50782c-5.2771 0-9.57034-4.2933-9.57034-9.5703 0-5.2771 4.29324-9.57034 9.57034-9.57034 5.277 0 9.5703 4.29324 9.5703 9.57034 0 5.277-4.2933 9.5703-9.5703 9.5703z"/><path d="m21.3326 10.7374c-.5887-1.53206-1.6136-2.84196-2.9641-3.78799-1.3826-.96865-3.0067-1.48066-4.6966-1.48066-.3775 0-.6836.30611-.6836.68359s.3061.6836.6836.6836c2.8095 0 5.3751 1.7649 6.3845 4.39186.1044.2718.3634.4386.6382.4386.0815 0 .1644-.0147.245-.0456.3524-.1355.5284-.5309.393-.8834z"/></svg>