<svg fill="#1e1e1e" height="35" viewBox="0 0 35 35" width="35" xmlns="http://www.w3.org/2000/svg"><path d="m23.6523 21.8066c-.3774 0-.6835.3061-.6835.6836v4.7168c0 1.8847-1.5334 3.418-3.418 3.418h-7.3806c-.3775 0-.6834.3058-.6836.6831l-.001 1.3591-1.6316-1.6315c-.10561-.2425-.34733-.4107-.62692-.4107h-4.44192c-1.88467 0-3.41797-1.5333-3.41797-3.418v-10.5273c0-1.8847 1.5333-3.418 3.41797-3.418h6.90434c.3774 0 .6835-.306.6835-.6836 0-.3775-.3061-.6836-.6835-.6836h-6.90434c-2.63854 0-4.78516 2.1467-4.78516 4.7852v10.5273c0 2.6386 2.14662 4.7852 4.78516 4.7852h4.09185l2.80759 2.8076c.1308.1307.3056.2002.4835.2002.088 0 .1768-.017.2612-.052.2555-.1056.4221-.3547.4223-.6311l.0016-2.3247h6.6976c2.6385 0 4.7851-2.1466 4.7851-4.7852v-4.7168c0-.3775-.3061-.6836-.6836-.6836z"/><path d="m25.0643 0h-1.7301c-5.4786 0-9.9358 4.45717-9.9358 9.93576 0 5.47864 4.4572 9.93574 9.9357 9.93574h1.7301c.8551 0 1.7015-.1087 2.5218-.3233l2.5558 2.5543c.1307.1306.3055.2001.4833.2001.0882 0 .177-.017.2616-.0521.2554-.1058.4219-.3551.4219-.6315v-3.955c1.0821-.8763 1.9809-1.9832 2.6117-3.2199.7165-1.4045 1.0797-2.9213 1.0797-4.50834 0-5.47859-4.4572-9.93576-9.9357-9.93576zm5.1494 16.7846c-.1714.1291-.2723.3314-.2723.5461v2.6386l-1.6728-1.6719c-.1302-.13-.3048-.2001-.4833-.2001-.067 0-.1347.0099-.2007.0302-.8137.2501-1.6616.3768-2.5203.3768h-1.7301c-4.7248 0-8.5686-3.8438-8.5686-8.56854 0-4.72473 3.8439-8.56857 8.5686-8.56857h1.7301c4.7247 0 8.5685 3.84384 8.5685 8.56857 0 2.71594-1.2462 5.21234-3.4191 6.84884z"/><path d="m27.2776 7.47997c-.0987-1.43111-1.2523-2.58474-2.6835-2.68338-.8113-.05571-1.5855.21793-2.1781.77116-.5845.54558-.9197 1.31681-.9197 2.116 0 .37755.3062.68359.6836.68359.3775 0 .6836-.30604.6836-.68359 0-.42786.1724-.82442.4854-1.11652.3127-.29182.7213-.43627 1.1513-.4066.7539.05195 1.3615.6596 1.4135 1.4134.0525.76132-.447 1.43411-1.1877 1.59981-.6.13426-1.0191.65571-1.0191 1.26796v1.6424c0 .3775.3062.6836.6836.6836.3776 0 .6836-.3061.6836-.6836v-1.5877c1.3774-.3328 2.3016-1.59322 2.2035-3.01653z"/><path d="m24.8739 14.3049c-.1271-.1271-.3035-.2003-.4833-.2003s-.3561.0732-.4833.2003c-.1271.1272-.2003.3035-.2003.4833 0 .1805.0732.3568.2003.484.1272.1271.3035.1996.4833.1996s.3562-.0725.4833-.1996c.1272-.1278.2003-.3035.2003-.484 0-.1798-.0732-.3561-.2003-.4833z"/><path d="m18.7988 21.1914h-14.4238c-.37748 0-.68359.3061-.68359.6836s.30611.6836.68359.6836h14.4238c.3776 0 .6836-.3061.6836-.6836s-.3061-.6836-.6836-.6836z"/><path d="m19.2821 25.2198c-.1271-.1271-.3035-.2003-.4833-.2003s-.3561.0732-.4833.2003c-.1272.1272-.2003.3035-.2003.4833s.0732.3562.2003.4833c.1272.1272.3035.2003.4833.2003s.3562-.0731.4833-.2003c.1272-.1271.2003-.3028.2003-.4833 0-.1798-.0732-.3561-.2003-.4833z"/><path d="m16.1101 25.0195h-11.7351c-.37748 0-.68359.3061-.68359.6836 0 .3776.30611.6836.68359.6836h11.7351c.3775 0 .6835-.306.6835-.6836 0-.3775-.3061-.6836-.6835-.6836z"/><path d="m14.3555 17.3633h-9.9805c-.37748 0-.68359.306-.68359.6836 0 .3775.30611.6836.68359.6836h9.9805c.3775 0 .6836-.3061.6836-.6836 0-.3776-.3062-.6836-.6836-.6836z"/></svg>