<svg fill="#1e1e1e" height="35" viewBox="0 0 35 35" width="35" xmlns="http://www.w3.org/2000/svg" xmlns:xlink="http://www.w3.org/1999/xlink"><clipPath id="a"><path d="m0 0h35v35h-35z"/></clipPath><g clip-path="url(#a)"><path d="m34.6277 14.2231-16.5905-12.14724c-.32-.2342-.7546-.2342-1.0744 0l-16.590666 12.14724c-.4052341.2968-.493281.8658-.196533 1.271.296748.4053.865839.4932 1.271009.1966l16.05329-11.75403 16.0533 11.75393c.1619.1186.35.1757.5365.1757.28 0 .5563-.1289.7345-.3722.2968-.4052.2087-.9742-.1965-1.271z"/><path d="m30.2316 15.8965c-.5021 0-.9093.4072-.9093.9094v14.4751h-7.275v-7.9014c0-2.5074-2.04-4.5473-4.5472-4.5473-2.5073 0-4.5473 2.04-4.5473 4.5473v7.9014h-7.27502v-14.475c0-.5022-.40722-.9094-.90939-.9094-.50216 0-.90938.4072-.90938.9094v15.3845c0 .5022.40722.9094.90938.9094h9.09381c.4782 0 .8696-.3695.9058-.8386.0022-.0213.0036-.0445.0036-.0708v-8.8109c0-1.5045 1.2239-2.7285 2.7285-2.7285 1.5045 0 2.7284 1.2241 2.7284 2.7285v8.8109c0 .0262.0014.049.0036.07.0358.4694.4273.8394.9058.8394h9.0938c.5023 0 .9094-.4072.9094-.9094v-15.3845c-.0001-.5023-.4072-.9095-.9095-.9095z"/></g></svg>