<svg fill="#fa0000" height="14" viewBox="0 0 14 14" width="14" xmlns="http://www.w3.org/2000/svg"><path d="m11.9495 2.0505c-1.3228-1.322807-3.07871-2.0505-4.9495-2.0505s-3.62668.727693-4.9495 2.0505c-1.322807 1.32282-2.0505 3.07871-2.0505 4.9495s.727693 3.6267 2.0505 4.9495c1.32282 1.3228 3.07871 2.0505 4.9495 2.0505s3.6267-.7277 4.9495-2.0505 2.0505-3.07871 2.0505-4.9495-.7277-3.62668-2.0505-4.9495zm-.5627 9.3363c-1.1726 1.1725-2.73108 1.8177-4.3868 1.8177s-3.21423-.6452-4.38678-1.8177c-2.418776-2.41879-2.418776-6.35481 0-8.77358 1.17255-1.17256 2.73106-1.817765 4.38678-1.817765s3.2142.645205 4.3868 1.817765c2.4188 2.41877 2.4188 6.35479 0 8.77358z"/><path d="m10.0846 3.91545c-.15611-.15615-.40653-.15615-.56267 0l-2.52189 2.52188-2.52188-2.52188c-.15615-.15615-.40657-.15615-.56271 0-.15615.15614-.15615.40656 0 .56271l2.52188 2.52188-2.52188 2.52189c-.15615.15614-.15615.40657 0 .56267.0766.0766.17971.1179.27988.1179s.20328-.0383.27988-.1179l2.52189-2.52184 2.52188 2.52184c.0766.0766.17972.1179.27988.1179.10312 0 .20324-.0383.27984-.1179.1562-.1561.1562-.40653 0-.56267l-2.51595-2.52189 2.52185-2.52188c.1562-.15615.1562-.40657 0-.56271z"/></svg>