<svg fill="#fff" height="183" viewBox="0 0 140 183" width="140" xmlns="http://www.w3.org/2000/svg"><path d="m69.5455 136.324c36.6515 0 66.3635-29.247 66.3635-65.325 0-36.0782-29.712-65.32523-66.3635-65.32523-36.6516 0-66.36362 29.24703-66.36362 65.32523 0 36.078 29.71202 65.325 66.36362 65.325z" stroke-width="5.96281"/><path d="m69.7729 57.5758c9.665 0 17.5-7.7124 17.5-17.2261 0-9.5138-7.835-17.2262-17.5-17.2262-9.6649 0-17.5 7.7124-17.5 17.2262 0 9.5137 7.8351 17.2261 17.5 17.2261z"/><path d="m89.9998 56.6808h-40.4545v4.4744c12.5 2.2371 13.6363 18.121 3.6363 29.5305h-10v8.393c12.0455 3.0163 11.1364 16.4393 2.5 30.0863 17.7273 5.817 28.3228 6.087 47.7273-.224-7.7273-13.87-9.5454-26.846 2.9546-29.8623v-8.393h-10c-8.1819-7.83-11.1364-26.8459 3.6363-29.5305z"/><path d="m67.2727 105.004c0-1.483 1.2209-2.685 2.7273-2.685h.4545c1.5064 0 2.7273 1.202 2.7273 2.685v12.528h-5.9091z"/><path d="m67.2727 66.2263c0-1.4828 1.2209-2.6846 2.7273-2.6846h.4545c1.5064 0 2.7273 1.2018 2.7273 2.6846v12.5281h-5.9091z"/></svg>