<svg fill="none" height="85" viewBox="0 0 85 85" width="85" xmlns="http://www.w3.org/2000/svg"><path d="m42.2241 81.1467c22.2528 0 40.2922-17.74 40.2922-39.6234 0-21.8835-18.0394-39.62352-40.2922-39.62352s-40.29222 17.74002-40.29222 39.62352c0 21.8834 18.03942 39.6234 40.29222 39.6234z" stroke="#fff" stroke-width="2.95455"/><g fill="#fff"><path d="m42.3621 33.3814c5.868 0 10.625-4.678 10.625-10.4486s-4.757-10.4487-10.625-10.4487c-5.8681 0-10.625 4.6781-10.625 10.4487s4.7569 10.4486 10.625 10.4486z"/><path d="m54.6429 32.8386h-24.5617v2.714c7.5893 1.3569 8.2792 10.9914 2.2078 17.9119h-6.0715v5.0908c7.3133 1.8298 6.7614 9.9716 1.5179 18.2491 10.763 3.5281 17.1959 3.6923 28.9773-.1357-4.6916-8.4132-5.7955-16.2836 1.7938-18.1134v-5.0908h-6.0714c-4.9676-4.7494-6.7614-16.2836 2.2078-17.9119z"/></g></svg>