<svg fill="#fff" height="18" viewBox="0 0 18 18" width="18" xmlns="http://www.w3.org/2000/svg"><path d="m17.4249 16.3951-4.284-4.4556c1.1015-1.3094 1.705-2.95688 1.705-4.67201 0-4.00723-3.2603-7.26749-7.26749-7.26749-4.00724 0-7.267497 3.26026-7.267497 7.26749 0 4.00721 3.260257 7.26751 7.267497 7.26751 1.50437 0 2.93799-.4538 4.16359-1.3151l4.3166 4.4894c.1804.1874.4231.2907.6832.2907.2461 0 .4796-.0938.6569-.2645.3766-.3624.3886-.9634.0262-1.3404zm-9.84649-14.49923c2.96199 0 5.37159 2.40965 5.37159 5.37162 0 2.96201-2.4096 5.37161-5.37159 5.37161-2.96198 0-5.37163-2.4096-5.37163-5.37161 0-2.96197 2.40965-5.37162 5.37163-5.37162z"/></svg>